:SAMPLES-PER-SECOND 30
:FULLY-SPECIFIED
:DEGREES
110
root  4.324333311 40.30133345 -0.02950622341 -13.00598145 -48.77099609 9.650024414
lowerback  7.275119781 1.728099942 0.5882859826
upperback  1.221400023 2.381690025 1.76572001
thorax  -2.866080046 1.178230047 1.261839986
lowerneck  -8.139829636 6.018770218 -3.657439947
upperneck  14.14770031 8.184700012 3.114739895
head  5.310919762 4.011650085 2.111680031
lclavicle  0 -9.442270133e-015 7.951389973e-016
lhumerus  -9.10503006 -20.26880074 88.56390381
lradius  2.823860711e-031 -2.120060075e-031 143.102005
lwrist  -7.062250077e-031 -0 -1.198930025
lhand  -1.496451383e-031 -27.76390076 20.11240005
lfingers  90 7.125020027 -90
lthumb  89.89689403 5.08795885 91.16245106
rclavicle  0 -9.442270133e-015 7.951389973e-016
rhumerus  1.144950032 36.58570099 -84.82160187
rradius  -2.635406646e-031 2.350207618e-031 138.2740021
rwrist  1.059337512e-030 -3.531125038e-031 -4.526080132
rhand  -7.920061211e-032 -33.2840004 9.303460121
rfingers  -90 -7.125020027 -90
rthumb  -92.93752616 -24.25625642 -97.11982154
rfemur  -7.525760174 17.28389931 14.6637001
rtibia  -0 0 52.76150131
rfoot  -4.681261281e-032 -19.45759964 2.458950043
rtoes  5.373923086 19.29304026 -105.8922705
lfemur  -20.48649979 5.914710045 -19.13430023
ltibia  -0 0 49.49900055
lfoot  -0 -3.352560043 -9.08302021
ltoes  -4.250644065 -19.5611806 -102.515957
111
root  4.360955531 40.52777628 0.005350466524 -13.01300049 -48.68499756 10.1829834
lowerback  7.001969814 2.409780025 0.9915379882
upperback  1.507840037 3.283890009 0.8070200086
thorax  -2.3557899 1.624549985 -0.01633610018
lowerneck  -9.462759972 5.469520092 -1.724449992
upperneck  14.62940025 7.217279911 2.917710066
head  5.801909924 3.62364006 1.745599985
lclavicle  0 -9.442270133e-015 7.951389973e-016
lhumerus  -6.798620224 -21.94379997 86.83969879
lradius  2.821564499e-031 -2.123115121e-031 143.0399933
lwrist  -1.059337512e-030 -0 0.3070380092
lhand  -1.496451383e-031 -27.76390076 20.11240005
lfingers  90 7.125020027 -90
lthumb  89.89689403 5.08795885 91.16245106
rclavicle  0 -9.442270133e-015 7.951389973e-016
rhumerus  1.492990017 34.12220001 -85.06169891
rradius  -2.627969105e-031 2.358521236e-031 138.0930023
rwrist  0 -1.765562519e-031 -4.546710014
rhand  -7.920061211e-032 -33.2840004 9.303460121
rfingers  -90 -7.125020027 -90
rthumb  -92.93752616 -24.25625642 -97.11982154
rfemur  -8.335439682 17.10420036 13.69559956
rtibia  -0 0 52.73529816
rfoot  -9.258018765e-032 -17.5352993 3.28192997
rtoes  5.373923086 19.29304026 -105.8922705
lfemur  -20.21299934 5.258180141 -19.54000092
ltibia  -0 0 48.14640045
lfoot  -0 -2.679239988 -8.923290253
ltoes  -4.250644065 -19.5611806 -102.515957
112
root  4.392022035 40.75022119 0.03460511037 -13.02301025 -48.65499878 10.79901123
lowerback  6.697999954 2.417459965 0.6070600152
upperback  1.451120019 3.265619993 0.8203150034
thorax  -2.267549992 1.618950009 0.2255499959
lowerneck  -9.415200233 5.610300064 -2.098390102
upperneck  14.83979988 7.461219788 2.943150043
head  5.837920189 3.721810102 1.833610058
lclavicle  0 -9.442270133e-015 7.951389973e-016
lhumerus  -5.970570087 -21.28510094 86.32230377
lradius  2.831722518e-031 -2.109547729e-031 143.3150024
lwrist  -1.059337512e-030 -3.531125038e-031 1.007459998
lhand  -1.496451383e-031 -27.76390076 20.11240005
lfingers  90 7.125020027 -90
lthumb  89.89689403 5.08795885 91.16245106
rclavicle  0 -9.442270133e-015 7.951389973e-016
rhumerus  1.575929999 34.26649857 -84.81040192
rradius  -2.619431002e-031 2.368000266e-031 137.8860016
rwrist  7.062250077e-031 -1.765562519e-031 -5.009039879
rhand  -7.920061211e-032 -33.2840004 9.303460121
rfingers  -90 -7.125020027 -90
rthumb  -92.93752616 -24.25625642 -97.11982154
rfemur  -9.211790085 17.0557003 12.67440033
rtibia  -0 0 52.67060089
rfoot  -4.583249495e-032 -15.62360001 4.23995018
rtoes  5.373923086 19.29304026 -105.8922705
lfemur  -19.97529984 4.65734005 -19.97850037
ltibia  -0 0 46.82799911
lfoot  -0 -2.369029999 -8.758560181
ltoes  -4.250644065 -19.5611806 -102.515957
113
root  4.429844608 40.95933268 0.06450155354 -13.04699707 -48.727005 11.31201172
lowerback  6.532100201 2.458600044 0.365790993
upperback  1.383730054 3.303519964 0.7877200246
thorax  -2.256390095 1.639860034 0.3291249871
lowerneck  -9.357130051 5.733019829 -2.232719898
upperneck  15.11069965 7.649320126 2.922359943
head  5.903580189 3.800879955 1.866780043
lclavicle  0 -9.442270133e-015 7.951389973e-016
lhumerus  -5.049709797 -20.67040062 85.61070251
lradius  2.842838663e-031 -2.094543476e-031 143.6179962
lwrist  -3.531125038e-031 -0 1.716359973
lhand  -1.496451383e-031 -27.76390076 20.11240005
lfingers  90 7.125020027 -90
lthumb  89.89689403 5.08795885 91.16245106
rclavicle  0 -9.442270133e-015 7.951389973e-016
rhumerus  1.75019002 34.39400101 -84.60900116
rradius  -2.606954976e-031 2.38172832e-031 137.5850067
rwrist  1.412450015e-030 -1.765562519e-031 -5.453169823
rhand  -7.920061211e-032 -33.2840004 9.303460121
rfingers  -90 -7.125020027 -90
rthumb  -92.93752616 -24.25625642 -97.11982154
rfemur  -10.0067997 17.15789986 11.79279995
rtibia  -0 0 52.57350159
rfoot  -4.542780862e-032 -13.68019962 5.322929859
rtoes  5.373923086 19.29304026 -105.8922705
lfemur  -19.62229919 4.330550194 -20.37859917
ltibia  -0 0 45.63339996
lfoot  -0 -2.604830027 -8.595379829
ltoes  -4.250644065 -19.5611806 -102.515957
114
root  4.482600069 41.14666736 0.09801800209 -13.03601074 -48.83200073 11.67797852
lowerback  6.503499985 2.515259981 0.3358969986
upperback  1.32802999 3.3759799 0.7089049816
thorax  -2.295140028 1.676210046 0.2586219907
lowerneck  -9.330389977 5.818369865 -2.227180004
upperneck  15.3906002 7.761079788 2.927279949
head  5.984089851 3.852129936 1.88203001
lclavicle  0 -9.442270133e-015 7.951389973e-016
lhumerus  -3.86935997 -20.09659958 84.57299805
lradius  2.85402095e-031 -2.079280754e-031 143.9250031
lwrist  -1.059337512e-030 -0 2.566129923
lhand  -1.496451383e-031 -27.76390076 20.11240005
lfingers  90 7.125020027 -90
lthumb  89.89689403 5.08795885 91.16245106
rclavicle  0 -9.442270133e-015 7.951389973e-016
rhumerus  2.109960079 34.27130127 -84.31300354
rradius  -2.593946371e-031 2.395889451e-031 137.272995
rwrist  7.062250077e-031 -3.531125038e-031 -6.06223011
rhand  -7.920061211e-032 -33.2840004 9.303460121
rfingers  -90 -7.125020027 -90
rthumb  -92.93752616 -24.25625642 -97.11982154
rfemur  -10.72480011 17.3885994 11.05760002
rtibia  -0 0 52.47869873
rfoot  -4.510545652e-032 -11.88169956 6.260419846
rtoes  5.373923086 19.29304026 -105.8922705
lfemur  -19.18610001 3.929399967 -20.66419983
ltibia  -0 0 44.56100082
lfoot  -0 -3.044950008 -8.293270111
ltoes  -4.250644065 -19.5611806 -102.515957
115
root  4.536110961 41.31777906 0.1290342235 -13.12200928 -48.977005 12.10699463
lowerback  6.47465992 2.538189888 0.2673699856
upperback  1.309430003 3.399869919 0.6167029738
thorax  -2.296679974 1.688549995 0.2010760009
lowerneck  -9.167090416 5.926249981 -2.210040092
upperneck  15.43350029 7.909440041 2.871720076
head  5.968709946 3.919770002 1.867660046
lclavicle  0 -9.442270133e-015 7.951389973e-016
lhumerus  -2.607929945 -19.42180061 83.32420349
lradius  2.866561269e-031 -2.061957936e-031 144.2720032
lwrist  -7.062250077e-031 -3.531125038e-031 3.35777998
lhand  -1.496451383e-031 -27.76390076 20.11240005
lfingers  90 7.125020027 -90
lthumb  89.89689403 5.08795885 91.16245106
rclavicle  0 -9.442270133e-015 7.951389973e-016
rhumerus  2.639869928 34.104599 -83.91390228
rradius  -2.582921412e-031 2.407770965e-031 137.0099945
rwrist  7.062250077e-031 -1.765562519e-031 -6.746779919
rhand  -7.920061211e-032 -33.2840004 9.303460121
rfingers  -90 -7.125020027 -90
rthumb  -92.93752616 -24.25625642 -97.11982154
rfemur  -11.39400005 17.6522007 10.28540039
rtibia  -0 0 52.38389969
rfoot  -8.975893291e-032 -10.4218998 6.862589836
rtoes  5.373923086 19.29304026 -105.8922705
lfemur  -18.6923008 3.346470118 -20.92910004
ltibia  -0 0 43.67340088
lfoot  -0 -3.180670023 -7.530389786
ltoes  -4.250644065 -19.5611806 -102.515957
116
root  4.574577827 41.46355456 0.1598604434 -13.2869873 -49.08999634 12.73999023
lowerback  6.213240147 2.502490044 -0.03458220139
upperback  1.317459941 3.330169916 0.5365769863
thorax  -2.154979944 1.656270027 0.3055520058
lowerneck  -8.994429588 6.083330154 -2.223340034
upperneck  15.45030022 8.1456604 2.71536994
head  5.944680214 4.020870209 1.831760049
lclavicle  0 -9.442270133e-015 7.951389973e-016
lhumerus  -1.384430051 -18.61940002 82.10420227
lradius  2.880173176e-031 -2.042901493e-031 144.6519928
lwrist  -1.059337512e-030 -3.531125038e-031 4.102359772
lhand  -1.496451383e-031 -27.76390076 20.11240005
lfingers  90 7.125020027 -90
lthumb  89.89689403 5.08795885 91.16245106
rclavicle  0 -9.442270133e-015 7.951389973e-016
rhumerus  3.38857007 34.12189865 -83.43900299
rradius  -2.570659288e-031 2.420858291e-031 136.7189941
rwrist  7.062250077e-031 -0 -7.11935997
rhand  -7.920061211e-032 -33.2840004 9.303460121
rfingers  -90 -7.125020027 -90
rthumb  -92.93752616 -24.25625642 -97.11982154
rfemur  -12.12440014 17.96520042 9.360289574
rtibia  -0 0 52.26929855
rfoot  -8.947171534e-032 -9.369279861 7.016970158
rtoes  5.373923086 19.29304026 -105.8922705
lfemur  -18.25559998 2.719369888 -21.34210014
ltibia  -0 0 43.0041008
lfoot  4.419699902e-032 -2.934020042 -5.94727993
ltoes  -4.250644065 -19.5611806 -102.515957
